# xmcd
#
# Track frame offsets:
#	300
#	14023
#	33063
#	45766
#	56325
#	71807
#	90280
#	108464
#	121820
#	138151
#	151107
#	167568
#	184535
#	206374
#
# Disc length: 2931 seconds
#
# Revision: 0
# Processed by: cddbd v1.5.1PL0 Copyright (c) Steve Scherf et al.
# Submitted via: dBpowerAMP V4.0
#
DISCID=a20b6f0e
DTITLE=Blues Kings - Keep on Rollin'
DYEAR=2003
DGENRE=Blues
TTITLE0=Boogie
TTITLE1=Sweet Lovely
TTITLE2=How Many More Years
TTITLE3=Bobby Sox Baby
TTITLE4=Last Night
TTITLE5=Everyday I Have the Blues
TTITLE6=Keep on Rollin'
TTITLE7=Bye, Bye, Baby
TTITLE8=Saw You See Me
TTITLE9=One More Chance With You
TTITLE10=Hard Hearted Woman
TTITLE11=She's Crazy
TTITLE12=Too Many Drivers
TTITLE13=Yeah, Yeah Baby
EXTD=
EXTT0=
EXTT1=
EXTT2=
EXTT3=
EXTT4=
EXTT5=
EXTT6=
EXTT7=
EXTT8=
EXTT9=
EXTT10=
EXTT11=
EXTT12=
EXTT13=
PLAYORDER=
